<?xml version="1.0" standalone="no"?>
<!DOCTYPE svg PUBLIC "-//W3C//DTD SVG 20010904//EN"
 "http://www.w3.org/TR/2001/REC-SVG-20010904/DTD/svg10.dtd">
<svg version="1.0" xmlns="http://www.w3.org/2000/svg"
 width="1600.000000pt" height="1600.000000pt" viewBox="0 0 1600.000000 1600.000000"
 preserveAspectRatio="xMidYMid meet">

<g transform="translate(0.000000,1600.000000) scale(0.100000,-0.100000)"
fill="#000000" stroke="none">
<path d="M11500 14000 l0 -500 -500 0 -500 0 0 -500 0 -500 -500 0 -500 0 0
-500 0 -500 -500 0 -500 0 0 -500 0 -500 -500 0 -500 0 0 -500 0 -500 -500 0
-500 0 0 -500 0 -500 -500 0 -500 0 0 500 0 500 -500 0 -500 0 0 500 0 500
-1000 0 -1000 0 0 -1000 0 -1000 500 0 500 0 0 -1000 0 -1000 500 0 500 0 0
-500 0 -500 -500 0 -500 0 0 -500 0 -500 -1000 0 -1000 0 0 -1500 0 -1500
1500 0 1500 0 0 1000 0 1000 500 0 500 0 0 500 0 500 500 0 500 0 0 -500 0
-500 1000 0 1000 0 0 -500 0 -500 1000 0 1000 0 0 1000 0 1000 -500 0 -500 0
0 500 0 500 -500 0 -500 0 0 500 0 500 500 0 500 0 0 500 0 500 500 0 500 0 0
500 0 500 500 0 500 0 0 500 0 500 500 0 500 0 0 500 0 500 500 0 500 0 0 500
0 500 500 0 500 0 0 1500 0 1500 -1500 0 -1500 0 0 -500z m2000 -1500 l0
-1000 -500 0 -500 0 0 -500 0 -500 -500 0 -500 0 0 -500 0 -500 -500 0 -500 0
0 -500 0 -500 -500 0 -500 0 0 -500 0 -500 -500 0 -500 0 0 -500 0 -500 -1000
0 -1000 0 0 -500 0 -500 1000 0 1000 0 0 -500 0 -500 500 0 500 0 0 -500 0
-500 -500 0 -500 0 0 500 0 500 -1000 0 -1000 0 0 500 0 500 -500 0 -500 0 0
-500 0 -500 -500 0 -500 0 0 500 0 500 500 0 500 0 0 500 0 500 -500 0 -500 0
0 1000 0 1000 -500 0 -500 0 0 500 0 500 500 0 500 0 0 -500 0 -500 500 0 500
0 0 -1000 0 -1000 500 0 500 0 0 1000 0 1000 500 0 500 0 0 500 0 500 500 0
500 0 0 500 0 500 500 0 500 0 0 500 0 500 500 0 500 0 0 500 0 500 500 0 500
0 0 500 0 500 1000 0 1000 0 0 -1000z m-10000 -9500 l0 -500 -500 0 -500 0 0
500 0 500 500 0 500 0 0 -500z"/>
</g>
</svg>
