<svg width="25" height="32" viewBox="0 0 25 32" fill="none" xmlns="http://www.w3.org/2000/svg">
<g id="lock 1" clip-path="url(#clip0_50_2813)">
<path id="Vector" fill-rule="evenodd" clip-rule="evenodd" d="M3.31161 10.7879C1.66671 10.7879 0.333252 12.1213 0.333252 13.7662V28.658C0.333252 30.3029 1.66671 31.6363 3.31161 31.6363H21.1818C22.8266 31.6363 24.1601 30.3029 24.1601 28.658V13.7662C24.1601 12.1213 22.8266 10.7879 21.1818 10.7879H3.31161ZM16.0058 23.2733L8.67238 15.8911H6.92834V17.6466L14.2618 25.0288L12.9554 26.3439L13.8243 27.2186L15.3279 25.6864L17.3123 27.6529C17.5527 27.8949 17.9409 27.8949 18.1813 27.6529L18.6188 27.2125C18.8591 26.9705 18.8591 26.5797 18.6188 26.3378L16.6591 24.365L18.1813 22.8328L17.3123 21.9581L16.0058 23.2733ZM17.565 17.6405L14.6439 20.5809L12.8999 18.8315L15.821 15.8911H17.565V17.6405ZM9.8494 21.9023L11.5934 23.6826L10.2315 25.0288L11.538 26.3439L10.669 27.2186L9.16533 25.6864L7.18101 27.6591C6.94066 27.901 6.55242 27.901 6.31208 27.6591L5.87453 27.2186C5.63419 26.9767 5.63419 26.5859 5.87453 26.3439L7.83427 24.365L6.31208 22.8328L7.18101 21.9581L8.48751 23.2733L9.8494 21.9023Z" fill="#A2B5C8"/>
<path id="Vector_2" d="M11.9489 1.85281H12.5446C15.6699 1.85281 18.2034 4.38638 18.2034 7.51169V13.3195H6.29004V7.51169C6.29004 4.38638 8.82357 1.85281 11.9489 1.85281Z" stroke="#A2B5C8" stroke-width="4.09524"/>
</g>
<defs>
<clipPath id="clip0_50_2813">
<rect width="24" height="31.2727" fill="white" transform="translate(0.333252 0.363647)"/>
</clipPath>
</defs>
</svg>
